<svg width="629" height="475" viewBox="0 0 629 475" version="1.1" xmlns="http://www.w3.org/2000/svg" xmlns:xlink="http://www.w3.org/1999/xlink" xmlns:figma="http://www.figma.com/figma/ns">
<title>Group</title>
<desc>Created using Figma</desc>
<g id="Canvas" transform="translate(4013 -2001)" figma:type="canvas">
<g id="Group" style="mix-blend-mode:normal;" figma:type="frame">
<g id="Ellipse 3" style="mix-blend-mode:normal;" figma:type="ellipse">
<use xlink:href="#path0_fill" transform="matrix(6.12501e-17 -1 1 6.12146e-17 -3682.46 2347.46)" fill="#FFFFFF" style="mix-blend-mode:normal;"/>
</g>
<g id="Ellipse 3" style="mix-blend-mode:normal;" figma:type="ellipse">
<use xlink:href="#path1_fill" transform="matrix(6.12501e-17 -1 1 6.12146e-17 -3643.58 2333.71)" fill="#FFFFFF" style="mix-blend-mode:normal;"/>
</g>
<g id="Ellipse 3" style="mix-blend-mode:normal;" figma:type="ellipse">
<use xlink:href="#path0_fill" transform="matrix(6.12501e-17 -1 1 6.12146e-17 -3653.95 2357.87)" fill="#FFFFFF" style="mix-blend-mode:normal;"/>
</g>
<g id="Ellipse 3" style="mix-blend-mode:normal;" figma:type="ellipse">
<use xlink:href="#path2_fill" transform="matrix(-0.488074 -0.872802 0.872923 -0.487859 -3674.83 2380.39)" fill="#FFFFFF" style="mix-blend-mode:normal;"/>
</g>
<g id="Ellipse 3" style="mix-blend-mode:normal;" figma:type="ellipse">
<use xlink:href="#path0_fill" transform="matrix(6.12501e-17 -1 1 6.12146e-17 -3617.01 2411.43)" fill="#FFFFFF" style="mix-blend-mode:normal;"/>
</g>
<g id="Ellipse 3" style="mix-blend-mode:normal;" figma:type="ellipse">
<use xlink:href="#path1_fill" transform="matrix(6.12501e-17 -1 1 6.12146e-17 -3627.81 2383.43)" fill="#FFFFFF" style="mix-blend-mode:normal;"/>
</g>
<g id="Ellipse 3" style="mix-blend-mode:normal;" figma:type="ellipse">
<use xlink:href="#path1_fill" transform="matrix(6.12501e-17 -1 1 6.12146e-17 -3659.01 2376.68)" fill="#FFFFFF" style="mix-blend-mode:normal;"/>
</g>
<g id="Ellipse 3" style="mix-blend-mode:normal;" figma:type="ellipse">
<use xlink:href="#path1_fill" transform="matrix(6.12501e-17 -1 1 6.12146e-17 -3624.44 2376.68)" fill="#FFFFFF" style="mix-blend-mode:normal;"/>
</g>
<g id="Ellipse 3" style="mix-blend-mode:normal;" figma:type="ellipse">
<use xlink:href="#path0_fill" transform="matrix(6.12501e-17 -1 1 6.12146e-17 -3477.33 2471.34)" fill="#FFFFFF" style="mix-blend-mode:normal;"/>
</g>
<g id="Ellipse 3" style="mix-blend-mode:normal;" figma:type="ellipse">
<use xlink:href="#path0_fill" transform="matrix(6.12501e-17 -1 1 6.12146e-17 -3626.02 2300.59)" fill="#FFFFFF" style="mix-blend-mode:normal;"/>
</g>
<g id="Ellipse 3" style="mix-blend-mode:normal;" figma:type="ellipse">
<use xlink:href="#path1_fill" transform="matrix(6.12501e-17 -1 1 6.12146e-17 -3447.56 2423.78)" fill="#FFFFFF" style="mix-blend-mode:normal;"/>
</g>
<g id="Ellipse 3" style="mix-blend-mode:normal;" figma:type="ellipse">
<use xlink:href="#path0_fill" transform="matrix(6.12501e-17 -1 1 6.12146e-17 -3797.32 2443.47)" fill="#FFFFFF" style="mix-blend-mode:normal;"/>
</g>
<g id="Ellipse 3" style="mix-blend-mode:normal;" figma:type="ellipse">
<use xlink:href="#path0_fill" transform="matrix(6.12501e-17 -1 1 6.12146e-17 -3829.53 2475.22)" fill="#FFFFFF" style="mix-blend-mode:normal;"/>
</g>
<g id="Ellipse 3" style="mix-blend-mode:normal;" figma:type="ellipse">
<use xlink:href="#path0_fill" transform="matrix(6.12501e-17 -1 1 6.12146e-17 -3842.26 2441.78)" fill="#FFFFFF" style="mix-blend-mode:normal;"/>
</g>
<g id="Ellipse 3" style="mix-blend-mode:normal;" figma:type="ellipse">
<use xlink:href="#path1_fill" transform="matrix(6.12501e-17 -1 1 6.12146e-17 -3802.38 2462.28)" fill="#FFFFFF" style="mix-blend-mode:normal;"/>
</g>
<g id="Ellipse 3" style="mix-blend-mode:normal;" figma:type="ellipse">
<use xlink:href="#path1_fill" transform="matrix(6.12501e-17 -1 1 6.12146e-17 -3510.66 2461.66)" fill="#FFFFFF" style="mix-blend-mode:normal;"/>
</g>
<g id="Ellipse 3" style="mix-blend-mode:normal;" figma:type="ellipse">
<use xlink:href="#path1_fill" transform="matrix(6.12501e-17 -1 1 6.12146e-17 -3877.18 2470.93)" fill="#FFFFFF" style="mix-blend-mode:normal;"/>
</g>
<g id="Ellipse 3" style="mix-blend-mode:normal;" figma:type="ellipse">
<use xlink:href="#path3_fill" transform="matrix(-0.488074 -0.872802 0.872923 -0.487859 -3644.14 2415)" fill="#FFFFFF" style="mix-blend-mode:normal;"/>
</g>
<g id="Ellipse 3" style="mix-blend-mode:normal;" figma:type="ellipse">
<use xlink:href="#path1_fill" transform="matrix(6.12501e-17 -1 1 6.12146e-17 -3739.35 2472.68)" fill="#FFFFFF" style="mix-blend-mode:normal;"/>
</g>
<g id="Ellipse 3" style="mix-blend-mode:normal;" figma:type="ellipse">
<use xlink:href="#path1_fill" transform="matrix(6.12501e-17 -1 1 6.12146e-17 -3795.58 2437.18)" fill="#FFFFFF" style="mix-blend-mode:normal;"/>
</g>
<g id="Ellipse 3" style="mix-blend-mode:normal;" figma:type="ellipse">
<use xlink:href="#path0_fill" transform="matrix(6.12501e-17 -1 1 6.12146e-17 -3980.42 2416)" fill="#FFFFFF" style="mix-blend-mode:normal;"/>
</g>
<g id="Ellipse 3" style="mix-blend-mode:normal;" figma:type="ellipse">
<use xlink:href="#path0_fill" transform="matrix(6.12501e-17 -1 1 6.12146e-17 -4012.62 2447.75)" fill="#FFFFFF" style="mix-blend-mode:normal;"/>
</g>
<g id="Ellipse 3" style="mix-blend-mode:normal;" figma:type="ellipse">
<use xlink:href="#path0_fill" transform="matrix(6.12501e-17 -1 1 6.12146e-17 -4012.67 2447.76)" fill="#FFFFFF" style="mix-blend-mode:normal;"/>
</g>
<g id="Ellipse 3" style="mix-blend-mode:normal;" figma:type="ellipse">
<use xlink:href="#path0_fill" transform="matrix(6.12501e-17 -1 1 6.12146e-17 -3980.53 2427.76)" fill="#FFFFFF" style="mix-blend-mode:normal;"/>
</g>
<g id="Ellipse 3" style="mix-blend-mode:normal;" figma:type="ellipse">
<use xlink:href="#path0_fill" transform="matrix(6.12501e-17 -1 1 6.12146e-17 -3965.55 2449.44)" fill="#FFFFFF" style="mix-blend-mode:normal;"/>
</g>
<g id="Ellipse 3" style="mix-blend-mode:normal;" figma:type="ellipse">
<use xlink:href="#path1_fill" transform="matrix(6.12501e-17 -1 1 6.12146e-17 -3926.67 2435.69)" fill="#FFFFFF" style="mix-blend-mode:normal;"/>
</g>
<g id="Ellipse 3" style="mix-blend-mode:normal;" figma:type="ellipse">
<use xlink:href="#path0_fill" transform="matrix(6.12501e-17 -1 1 6.12146e-17 -3924.11 2462.29)" fill="#FFFFFF" style="mix-blend-mode:normal;"/>
</g>
<g id="Ellipse 3" style="mix-blend-mode:normal;" figma:type="ellipse">
<use xlink:href="#path0_fill" transform="matrix(6.12501e-17 -1 1 6.12146e-17 -3891.97 2442.29)" fill="#FFFFFF" style="mix-blend-mode:normal;"/>
</g>
<g id="Ellipse 3" style="mix-blend-mode:normal;" figma:type="ellipse">
<use xlink:href="#path0_fill" transform="matrix(6.12501e-17 -1 1 6.12146e-17 -3614.42 2457.51)" fill="#FFFFFF" style="mix-blend-mode:normal;"/>
</g>
<g id="Ellipse 3" style="mix-blend-mode:normal;" figma:type="ellipse">
<use xlink:href="#path0_fill" transform="matrix(6.12501e-17 -1 1 6.12146e-17 -3582.28 2437.51)" fill="#FFFFFF" style="mix-blend-mode:normal;"/>
</g>
<g id="Ellipse 3" style="mix-blend-mode:normal;" figma:type="ellipse">
<use xlink:href="#path0_fill" transform="matrix(6.12501e-17 -1 1 6.12146e-17 -3567.3 2459.2)" fill="#FFFFFF" style="mix-blend-mode:normal;"/>
</g>
<g id="Ellipse 3" style="mix-blend-mode:normal;" figma:type="ellipse">
<use xlink:href="#path1_fill" transform="matrix(6.12501e-17 -1 1 6.12146e-17 -3528.42 2445.45)" fill="#FFFFFF" style="mix-blend-mode:normal;"/>
</g>
<g id="Ellipse 3" style="mix-blend-mode:normal;" figma:type="ellipse">
<use xlink:href="#path2_fill" transform="matrix(-0.488074 -0.872802 0.872923 -0.487859 -3652.03 2432.42)" fill="#FFFFFF" style="mix-blend-mode:normal;"/>
</g>
<g id="Ellipse 3" style="mix-blend-mode:normal;" figma:type="ellipse">
<use xlink:href="#path2_fill" transform="matrix(-0.488074 -0.872802 0.872923 -0.487859 -3628.38 2444.05)" fill="#FFFFFF" style="mix-blend-mode:normal;"/>
</g>
<g id="Ellipse 3" style="mix-blend-mode:normal;" figma:type="ellipse">
<use xlink:href="#path4_fill" transform="matrix(0.795922 0.6054 -0.604988 0.796234 -3717.46 2414.92)" fill="#FFFFFF" style="mix-blend-mode:normal;"/>
</g>
<g id="Ellipse 3" style="mix-blend-mode:normal;" figma:type="ellipse">
<use xlink:href="#path5_fill" transform="matrix(0.795922 0.6054 -0.604988 0.796234 -3688.65 2423.26)" fill="#FFFFFF" style="mix-blend-mode:normal;"/>
</g>
<g id="Ellipse 3" style="mix-blend-mode:normal;" figma:type="ellipse">
<use xlink:href="#path5_fill" transform="matrix(0.795922 0.6054 -0.604988 0.796234 -3685.31 2430.03)" fill="#FFFFFF" style="mix-blend-mode:normal;"/>
</g>
<g id="Ellipse 3" style="mix-blend-mode:normal;" figma:type="ellipse">
<use xlink:href="#path6_fill" transform="matrix(0.96997 -0.243225 0.242198 0.970227 -3727.89 2434.74)" fill="#FFFFFF" style="mix-blend-mode:normal;"/>
</g>
<g id="Ellipse 3" style="mix-blend-mode:normal;" figma:type="ellipse">
<use xlink:href="#path4_fill" transform="matrix(0.795922 0.6054 -0.604988 0.796234 -3796.82 2399.1)" fill="#FFFFFF" style="mix-blend-mode:normal;"/>
</g>
<g id="Ellipse 3" style="mix-blend-mode:normal;" figma:type="ellipse">
<use xlink:href="#path6_fill" transform="matrix(0.96997 -0.243225 0.242198 0.970227 -3737.14 2390.74)" fill="#FFFFFF" style="mix-blend-mode:normal;"/>
</g>
<g id="Ellipse 3" style="mix-blend-mode:normal;" figma:type="ellipse">
<use xlink:href="#path7_fill" transform="matrix(0.96997 -0.243225 0.242198 0.970227 -3747.37 2434.42)" fill="#FFFFFF" style="mix-blend-mode:normal;"/>
</g>
<g id="Ellipse 3" style="mix-blend-mode:normal;" figma:type="ellipse">
<use xlink:href="#path7_fill" transform="matrix(0.96997 -0.243225 0.242198 0.970227 -3720.04 2457.9)" fill="#FFFFFF" style="mix-blend-mode:normal;"/>
</g>
<g id="Ellipse 3" style="mix-blend-mode:normal;" figma:type="ellipse">
<use xlink:href="#path6_fill" transform="matrix(0.96997 -0.243225 0.242198 0.970227 -3700.07 2457.68)" fill="#FFFFFF" style="mix-blend-mode:normal;"/>
</g>
<g id="Ellipse 3" style="mix-blend-mode:normal;" figma:type="ellipse">
<use xlink:href="#path4_fill" transform="matrix(0.795922 0.6054 -0.604988 0.796234 -3768.25 2357.46)" fill="#FFFFFF" style="mix-blend-mode:normal;"/>
</g>
<g id="Ellipse 3" style="mix-blend-mode:normal;" figma:type="ellipse">
<use xlink:href="#path4_fill" transform="matrix(0.795922 0.6054 -0.604988 0.796234 -3796.71 2348.63)" fill="#FFFFFF" style="mix-blend-mode:normal;"/>
</g>
<g id="Ellipse 3" style="mix-blend-mode:normal;" figma:type="ellipse">
<use xlink:href="#path5_fill" transform="matrix(0.795922 0.6054 -0.604988 0.796234 -3767.9 2356.98)" fill="#FFFFFF" style="mix-blend-mode:normal;"/>
</g>
<g id="Ellipse 3" style="mix-blend-mode:normal;" figma:type="ellipse">
<use xlink:href="#path5_fill" transform="matrix(0.795922 0.6054 -0.604988 0.796234 -3764.57 2363.75)" fill="#FFFFFF" style="mix-blend-mode:normal;"/>
</g>
<g id="Ellipse 3" style="mix-blend-mode:normal;" figma:type="ellipse">
<use xlink:href="#path6_fill" transform="matrix(0.96997 -0.243225 0.242198 0.970227 -3734.94 2353.67)" fill="#FFFFFF" style="mix-blend-mode:normal;"/>
</g>
<g id="Ellipse 3" style="mix-blend-mode:normal;" figma:type="ellipse">
<use xlink:href="#path7_fill" transform="matrix(0.96997 -0.243225 0.242198 0.970227 -3714.81 2408.78)" fill="#FFFFFF" style="mix-blend-mode:normal;"/>
</g>
<g id="Ellipse 3" style="mix-blend-mode:normal;" figma:type="ellipse">
<use xlink:href="#path7_fill" transform="matrix(0.96997 -0.243225 0.242198 0.970227 -3715.82 2376.86)" fill="#FFFFFF" style="mix-blend-mode:normal;"/>
</g>
<g id="Ellipse 3" style="mix-blend-mode:normal;" figma:type="ellipse">
<use xlink:href="#path7_fill" transform="matrix(0.96997 -0.243225 0.242198 0.970227 -3707.44 2410.41)" fill="#FFFFFF" style="mix-blend-mode:normal;"/>
</g>
<g id="Ellipse 3" style="mix-blend-mode:normal;" figma:type="ellipse">
<use xlink:href="#path8_fill" transform="matrix(0.844462 -0.535616 0.534751 0.84501 -3803.03 2378.94)" fill="#FFFFFF" style="mix-blend-mode:normal;"/>
</g>
<g id="Ellipse 3" style="mix-blend-mode:normal;" figma:type="ellipse">
<use xlink:href="#path9_fill" transform="matrix(0.844462 -0.535616 0.534751 0.84501 -3785.15 2354.82)" fill="#FFFFFF" style="mix-blend-mode:normal;"/>
</g>
<g id="Ellipse 3" style="mix-blend-mode:normal;" figma:type="ellipse">
<use xlink:href="#path9_fill" transform="matrix(0.844462 -0.535616 0.534751 0.84501 -3777.65 2354.05)" fill="#FFFFFF" style="mix-blend-mode:normal;"/>
</g>
<g id="Ellipse 3" style="mix-blend-mode:normal;" figma:type="ellipse">
<use xlink:href="#path10_fill" transform="matrix(0.110978 -0.993823 0.99389 0.110372 -3788.11 2395.63)" fill="#FFFFFF" style="mix-blend-mode:normal;"/>
</g>
<g id="Ellipse 3" style="mix-blend-mode:normal;" figma:type="ellipse">
<use xlink:href="#path8_fill" transform="matrix(0.844462 -0.535616 0.534751 0.84501 -3845.57 2447.89)" fill="#FFFFFF" style="mix-blend-mode:normal;"/>
</g>
<g id="Ellipse 3" style="mix-blend-mode:normal;" figma:type="ellipse">
<use xlink:href="#path10_fill" transform="matrix(0.110978 -0.993823 0.99389 0.110372 -3832.56 2389)" fill="#FFFFFF" style="mix-blend-mode:normal;"/>
</g>
<g id="Ellipse 3" style="mix-blend-mode:normal;" figma:type="ellipse">
<use xlink:href="#path11_fill" transform="matrix(0.110978 -0.993823 0.99389 0.110372 -3795.22 2413.78)" fill="#FFFFFF" style="mix-blend-mode:normal;"/>
</g>
<g id="Ellipse 3" style="mix-blend-mode:normal;" figma:type="ellipse">
<use xlink:href="#path11_fill" transform="matrix(0.110978 -0.993823 0.99389 0.110372 -3763.68 2396.32)" fill="#FFFFFF" style="mix-blend-mode:normal;"/>
</g>
<g id="Ellipse 3" style="mix-blend-mode:normal;" figma:type="ellipse">
<use xlink:href="#path10_fill" transform="matrix(0.110978 -0.993823 0.99389 0.110372 -3756.91 2377.51)" fill="#FFFFFF" style="mix-blend-mode:normal;"/>
</g>
<g id="Ellipse 3" style="mix-blend-mode:normal;" figma:type="ellipse">
<use xlink:href="#path8_fill" transform="matrix(0.844462 -0.535616 0.534751 0.84501 -3874.6 2406.6)" fill="#FFFFFF" style="mix-blend-mode:normal;"/>
</g>
<g id="Ellipse 3" style="mix-blend-mode:normal;" figma:type="ellipse">
<use xlink:href="#path9_fill" transform="matrix(0.844462 -0.535616 0.534751 0.84501 -3874.92 2406.1)" fill="#FFFFFF" style="mix-blend-mode:normal;"/>
</g>
<g id="Ellipse 3" style="mix-blend-mode:normal;" figma:type="ellipse">
<use xlink:href="#path9_fill" transform="matrix(0.844462 -0.535616 0.534751 0.84501 -3867.42 2405.33)" fill="#FFFFFF" style="mix-blend-mode:normal;"/>
</g>
<g id="Ellipse 3" style="mix-blend-mode:normal;" figma:type="ellipse">
<use xlink:href="#path10_fill" transform="matrix(0.110978 -0.993823 0.99389 0.110372 -3866.5 2374.04)" fill="#FFFFFF" style="mix-blend-mode:normal;"/>
</g>
<g id="Ellipse 3" style="mix-blend-mode:normal;" figma:type="ellipse">
<use xlink:href="#path11_fill" transform="matrix(0.110978 -0.993823 0.99389 0.110372 -3807.86 2374.32)" fill="#FFFFFF" style="mix-blend-mode:normal;"/>
</g>
<g id="Ellipse 3" style="mix-blend-mode:normal;" figma:type="ellipse">
<use xlink:href="#path11_fill" transform="matrix(0.110978 -0.993823 0.99389 0.110372 -3838.1 2364.17)" fill="#FFFFFF" style="mix-blend-mode:normal;"/>
</g>
<g id="Ellipse 3" style="mix-blend-mode:normal;" figma:type="ellipse">
<use xlink:href="#path11_fill" transform="matrix(0.110978 -0.993823 0.99389 0.110372 -3803.76 2367.98)" fill="#FFFFFF" style="mix-blend-mode:normal;"/>
</g>
<g id="Ellipse 3" style="mix-blend-mode:normal;" figma:type="ellipse">
<use xlink:href="#path3_fill" transform="matrix(-0.488074 -0.872802 0.872923 -0.487859 -3667.56 2409.52)" fill="#FFFFFF" style="mix-blend-mode:normal;"/>
</g>
<g id="Ellipse 3" style="mix-blend-mode:normal;" figma:type="ellipse">
<use xlink:href="#path12_fill" transform="matrix(6.12443e-17 -1 1 6.12204e-17 -3497.54 2270.77)" fill="#FFFFFF" style="mix-blend-mode:normal;"/>
</g>
<g id="Ellipse 3" style="mix-blend-mode:normal;" figma:type="ellipse">
<use xlink:href="#path0_fill" transform="matrix(6.12501e-17 -1 1 6.12146e-17 -3569.91 2329.05)" fill="#FFFFFF" style="mix-blend-mode:normal;"/>
</g>
<g id="Ellipse 3" style="mix-blend-mode:normal;" figma:type="ellipse">
<use xlink:href="#path0_fill" transform="matrix(6.12501e-17 -1 1 6.12146e-17 -3532.97 2382.61)" fill="#FFFFFF" style="mix-blend-mode:normal;"/>
</g>
<g id="Ellipse 3" style="mix-blend-mode:normal;" figma:type="ellipse">
<use xlink:href="#path1_fill" transform="matrix(6.12501e-17 -1 1 6.12146e-17 -3543.76 2354.61)" fill="#FFFFFF" style="mix-blend-mode:normal;"/>
</g>
<g id="Ellipse 3" style="mix-blend-mode:normal;" figma:type="ellipse">
<use xlink:href="#path1_fill" transform="matrix(6.12501e-17 -1 1 6.12146e-17 -3574.97 2347.86)" fill="#FFFFFF" style="mix-blend-mode:normal;"/>
</g>
<g id="Ellipse 3" style="mix-blend-mode:normal;" figma:type="ellipse">
<use xlink:href="#path1_fill" transform="matrix(6.12501e-17 -1 1 6.12146e-17 -3540.39 2347.86)" fill="#FFFFFF" style="mix-blend-mode:normal;"/>
</g>
<g id="Ellipse 3" style="mix-blend-mode:normal;" figma:type="ellipse">
<use xlink:href="#path1_fill" transform="matrix(6.12501e-17 -1 1 6.12146e-17 -3577.93 2326.93)" fill="#FFFFFF" style="mix-blend-mode:normal;"/>
</g>
<g id="Ellipse 3" style="mix-blend-mode:normal;" figma:type="ellipse">
<use xlink:href="#path13_fill" transform="matrix(-0.780403 -0.625277 0.625497 -0.780226 -3510.88 2378.93)" fill="#FFFFFF" style="mix-blend-mode:normal;"/>
</g>
<g id="Ellipse 3" style="mix-blend-mode:normal;" figma:type="ellipse">
<use xlink:href="#path13_fill" transform="matrix(-0.780403 -0.625277 0.625497 -0.780226 -3540.29 2412.92)" fill="#FFFFFF" style="mix-blend-mode:normal;"/>
</g>
<g id="Ellipse 3" style="mix-blend-mode:normal;" figma:type="ellipse">
<use xlink:href="#path14_fill" transform="matrix(-0.780403 -0.625277 0.625497 -0.780226 -3499.35 2394.63)" fill="#FFFFFF" style="mix-blend-mode:normal;"/>
</g>
<g id="Ellipse 3" style="mix-blend-mode:normal;" figma:type="ellipse">
<use xlink:href="#path14_fill" transform="matrix(-0.780403 -0.625277 0.625497 -0.780226 -3497.2 2358.66)" fill="#FFFFFF" style="mix-blend-mode:normal;"/>
</g>
<g id="Ellipse 3" style="mix-blend-mode:normal;" figma:type="ellipse">
<use xlink:href="#path0_fill" transform="matrix(6.12501e-17 -1 1 6.12146e-17 -3560.36 2293.8)" fill="#FFFFFF" style="mix-blend-mode:normal;"/>
</g>
<g id="Ellipse 3" style="mix-blend-mode:normal;" figma:type="ellipse">
<use xlink:href="#path15_fill" transform="matrix(6.12443e-17 -1 1 6.12204e-17 -3541.22 2259.72)" fill="#FFFFFF" style="mix-blend-mode:normal;"/>
</g>
<g id="Ellipse 3" style="mix-blend-mode:normal;" figma:type="ellipse">
<use xlink:href="#path15_fill" transform="matrix(6.12443e-17 -1 1 6.12204e-17 -3537 2251.25)" fill="#FFFFFF" style="mix-blend-mode:normal;"/>
</g>
<g id="Ellipse 3" style="mix-blend-mode:normal;" figma:type="ellipse">
<use xlink:href="#path13_fill" transform="matrix(-0.780403 -0.625277 0.625497 -0.780226 -3509.46 2342.88)" fill="#FFFFFF" style="mix-blend-mode:normal;"/>
</g>
<g id="Ellipse 3" style="mix-blend-mode:normal;" figma:type="ellipse">
<use xlink:href="#path13_fill" transform="matrix(-0.780403 -0.625277 0.625497 -0.780226 -3543.52 2331.9)" fill="#FFFFFF" style="mix-blend-mode:normal;"/>
</g>
<g id="Ellipse 3" style="mix-blend-mode:normal;" figma:type="ellipse">
<use xlink:href="#path16_fill" transform="matrix(-0.780374 -0.625312 0.625461 -0.780255 -3519.37 2261.03)" fill="#FFFFFF" style="mix-blend-mode:normal;"/>
</g>
<g id="Ellipse 3" style="mix-blend-mode:normal;" figma:type="ellipse">
<use xlink:href="#path13_fill" transform="matrix(-0.780403 -0.625277 0.625497 -0.780226 -3575.76 2388.63)" fill="#FFFFFF" style="mix-blend-mode:normal;"/>
</g>
<g id="Ellipse 3" style="mix-blend-mode:normal;" figma:type="ellipse">
<use xlink:href="#path13_fill" transform="matrix(-0.780403 -0.625277 0.625497 -0.780226 -3571.12 2433.6)" fill="#FFFFFF" style="mix-blend-mode:normal;"/>
</g>
<g id="Ellipse 3" style="mix-blend-mode:normal;" figma:type="ellipse">
<use xlink:href="#path14_fill" transform="matrix(-0.780403 -0.625277 0.625497 -0.780226 -3539.45 2384.22)" fill="#FFFFFF" style="mix-blend-mode:normal;"/>
</g>
<g id="Ellipse 3" style="mix-blend-mode:normal;" figma:type="ellipse">
<use xlink:href="#path14_fill" transform="matrix(-0.780403 -0.625277 0.625497 -0.780226 -3564.24 2404.34)" fill="#FFFFFF" style="mix-blend-mode:normal;"/>
</g>
<g id="Ellipse 3" style="mix-blend-mode:normal;" figma:type="ellipse">
<use xlink:href="#path14_fill" transform="matrix(-0.780403 -0.625277 0.625497 -0.780226 -3542.61 2377.37)" fill="#FFFFFF" style="mix-blend-mode:normal;"/>
</g>
<g id="Ellipse 3" style="mix-blend-mode:normal;" figma:type="ellipse">
<use xlink:href="#path17_fill" transform="matrix(-0.856898 0.515486 -0.51508 -0.857142 -3477.64 2271.02)" fill="#FFFFFF" style="mix-blend-mode:normal;"/>
</g>
<g id="Ellipse 3" style="mix-blend-mode:normal;" figma:type="ellipse">
<use xlink:href="#path18_fill" transform="matrix(-0.856898 0.515486 -0.51508 -0.857142 -3509.45 2244.77)" fill="#FFFFFF" style="mix-blend-mode:normal;"/>
</g>
<g id="Ellipse 3" style="mix-blend-mode:normal;" figma:type="ellipse">
<use xlink:href="#path17_fill" transform="matrix(-0.856898 0.515486 -0.51508 -0.857142 -3483.41 2241.21)" fill="#FFFFFF" style="mix-blend-mode:normal;"/>
</g>
<g id="Ellipse 3" style="mix-blend-mode:normal;" figma:type="ellipse">
<use xlink:href="#path19_fill" transform="matrix(-0.496113 0.868258 -0.867679 -0.497125 -3453.36 2247.51)" fill="#FFFFFF" style="mix-blend-mode:normal;"/>
</g>
<g id="Ellipse 3" style="mix-blend-mode:normal;" figma:type="ellipse">
<use xlink:href="#path18_fill" transform="matrix(-0.856898 0.515486 -0.51508 -0.857142 -3474.99 2205.62)" fill="#FFFFFF" style="mix-blend-mode:normal;"/>
</g>
<g id="Ellipse 3" style="mix-blend-mode:normal;" figma:type="ellipse">
<use xlink:href="#path18_fill" transform="matrix(-0.856898 0.515486 -0.51508 -0.857142 -3464.7 2235.86)" fill="#FFFFFF" style="mix-blend-mode:normal;"/>
</g>
<g id="Ellipse 3" style="mix-blend-mode:normal;" figma:type="ellipse">
<use xlink:href="#path18_fill" transform="matrix(-0.856898 0.515486 -0.51508 -0.857142 -3482.51 2206.21)" fill="#FFFFFF" style="mix-blend-mode:normal;"/>
</g>
<g id="Ellipse 3" style="mix-blend-mode:normal;" figma:type="ellipse">
<use xlink:href="#path17_fill" transform="matrix(-0.856898 0.515486 -0.51508 -0.857142 -3546.87 2246.78)" fill="#FFFFFF" style="mix-blend-mode:normal;"/>
</g>
<g id="Ellipse 3" style="mix-blend-mode:normal;" figma:type="ellipse">
<use xlink:href="#path20_fill" transform="matrix(-0.856898 0.515486 -0.51508 -0.857142 -3638.61 2151.97)" fill="#FFFFFF" style="mix-blend-mode:normal;"/>
</g>
<g id="Ellipse 3" style="mix-blend-mode:normal;" figma:type="ellipse">
<use xlink:href="#path17_fill" transform="matrix(-0.856898 0.515486 -0.51508 -0.857142 -3551.4 2184)" fill="#FFFFFF" style="mix-blend-mode:normal;"/>
</g>
<g id="Ellipse 3" style="mix-blend-mode:normal;" figma:type="ellipse">
<use xlink:href="#path18_fill" transform="matrix(-0.856898 0.515486 -0.51508 -0.857142 -3542.98 2148.41)" fill="#FFFFFF" style="mix-blend-mode:normal;"/>
</g>
<g id="Ellipse 3" style="mix-blend-mode:normal;" figma:type="ellipse">
<use xlink:href="#path18_fill" transform="matrix(-0.856898 0.515486 -0.51508 -0.857142 -3532.68 2178.64)" fill="#FFFFFF" style="mix-blend-mode:normal;"/>
</g>
<g id="Ellipse 3" style="mix-blend-mode:normal;" figma:type="ellipse">
<use xlink:href="#path18_fill" transform="matrix(-0.856898 0.515486 -0.51508 -0.857142 -3550.5 2148.99)" fill="#FFFFFF" style="mix-blend-mode:normal;"/>
</g>
<g id="Ellipse 3" style="mix-blend-mode:normal;" figma:type="ellipse">
<use xlink:href="#path18_fill" transform="matrix(-0.856898 0.515486 -0.51508 -0.857142 -3549.09 2191.97)" fill="#FFFFFF" style="mix-blend-mode:normal;"/>
</g>
<g id="Ellipse 3" style="mix-blend-mode:normal;" figma:type="ellipse">
<use xlink:href="#path17_fill" transform="matrix(-0.856898 0.515486 -0.51508 -0.857142 -3586.52 2193.97)" fill="#FFFFFF" style="mix-blend-mode:normal;"/>
</g>
<g id="Ellipse 3" style="mix-blend-mode:normal;" figma:type="ellipse">
<use xlink:href="#path21_fill" transform="matrix(-0.856898 0.515486 -0.51508 -0.857142 -3625.57 2195.12)" fill="#FFFFFF" style="mix-blend-mode:normal;"/>
</g>
<g id="Ellipse 3" style="mix-blend-mode:normal;" figma:type="ellipse">
<use xlink:href="#path21_fill" transform="matrix(-0.856898 0.515486 -0.51508 -0.857142 -3635.01 2195.86)" fill="#FFFFFF" style="mix-blend-mode:normal;"/>
</g>
<g id="Ellipse 3" style="mix-blend-mode:normal;" figma:type="ellipse">
<use xlink:href="#path22_fill" transform="matrix(-0.133416 0.99106 -0.990933 -0.134356 -3570.71 2125.04)" fill="#FFFFFF" style="mix-blend-mode:normal;"/>
</g>
<g id="Ellipse 3" style="mix-blend-mode:normal;" figma:type="ellipse">
<use xlink:href="#path22_fill" transform="matrix(-0.133416 0.99106 -0.990933 -0.134356 -3562.56 2159.91)" fill="#FFFFFF" style="mix-blend-mode:normal;"/>
</g>
<g id="Ellipse 3" style="mix-blend-mode:normal;" figma:type="ellipse">
<use xlink:href="#path23_fill" transform="matrix(-0.133462 0.991054 -0.990939 -0.134311 -3635.71 2175.71)" fill="#FFFFFF" style="mix-blend-mode:normal;"/>
</g>
<g id="Ellipse 3" style="mix-blend-mode:normal;" figma:type="ellipse">
<use xlink:href="#path22_fill" transform="matrix(-0.133416 0.99106 -0.990933 -0.134356 -3497.36 2158.31)" fill="#FFFFFF" style="mix-blend-mode:normal;"/>
</g>
<g id="Ellipse 3" style="mix-blend-mode:normal;" figma:type="ellipse">
<use xlink:href="#path24_fill" transform="matrix(-0.133416 0.99106 -0.990933 -0.134356 -3519.85 2129.46)" fill="#FFFFFF" style="mix-blend-mode:normal;"/>
</g>
<g id="Ellipse 3" style="mix-blend-mode:normal;" figma:type="ellipse">
<use xlink:href="#path24_fill" transform="matrix(-0.133416 0.99106 -0.990933 -0.134356 -3524.08 2135.7)" fill="#FFFFFF" style="mix-blend-mode:normal;"/>
</g>
<g id="Ellipse 3" style="mix-blend-mode:normal;" figma:type="ellipse">
<use xlink:href="#path20_fill" transform="matrix(0.493906 0.869515 -0.869749 0.493494 -3429.8 2142.47)" fill="#FFFFFF" style="mix-blend-mode:normal;"/>
</g>
<g id="Ellipse 3" style="mix-blend-mode:normal;" figma:type="ellipse">
<use xlink:href="#path17_fill" transform="matrix(0.493906 0.869515 -0.869749 0.493494 -3395.61 2056.09)" fill="#FFFFFF" style="mix-blend-mode:normal;"/>
</g>
<g id="Ellipse 3" style="mix-blend-mode:normal;" figma:type="ellipse">
<use xlink:href="#path18_fill" transform="matrix(0.493906 0.869515 -0.869749 0.493494 -3430.98 2046.78)" fill="#FFFFFF" style="mix-blend-mode:normal;"/>
</g>
<g id="Ellipse 3" style="mix-blend-mode:normal;" figma:type="ellipse">
<use xlink:href="#path18_fill" transform="matrix(0.493906 0.869515 -0.869749 0.493494 -3400.5 2037.24)" fill="#FFFFFF" style="mix-blend-mode:normal;"/>
</g>
<g id="Ellipse 3" style="mix-blend-mode:normal;" figma:type="ellipse">
<use xlink:href="#path18_fill" transform="matrix(0.493906 0.869515 -0.869749 0.493494 -3430.58 2054.31)" fill="#FFFFFF" style="mix-blend-mode:normal;"/>
</g>
<g id="Ellipse 3" style="mix-blend-mode:normal;" figma:type="ellipse">
<use xlink:href="#path18_fill" transform="matrix(0.493906 0.869515 -0.869749 0.493494 -3387.59 2053.98)" fill="#FFFFFF" style="mix-blend-mode:normal;"/>
</g>
<g id="Ellipse 3" style="mix-blend-mode:normal;" figma:type="ellipse">
<use xlink:href="#path17_fill" transform="matrix(0.493906 0.869515 -0.869749 0.493494 -3386.52 2091.44)" fill="#FFFFFF" style="mix-blend-mode:normal;"/>
</g>
<g id="Ellipse 3" style="mix-blend-mode:normal;" figma:type="ellipse">
<use xlink:href="#path21_fill" transform="matrix(0.493906 0.869515 -0.869749 0.493494 -3386.34 2130.52)" fill="#FFFFFF" style="mix-blend-mode:normal;"/>
</g>
<g id="Ellipse 3" style="mix-blend-mode:normal;" figma:type="ellipse">
<use xlink:href="#path21_fill" transform="matrix(0.493906 0.869515 -0.869749 0.493494 -3385.84 2139.96)" fill="#FFFFFF" style="mix-blend-mode:normal;"/>
</g>
<g id="Ellipse 3" style="mix-blend-mode:normal;" figma:type="ellipse">
<use xlink:href="#path22_fill" transform="matrix(0.987415 0.158147 -0.159084 0.987265 -3455.03 2073.91)" fill="#FFFFFF" style="mix-blend-mode:normal;"/>
</g>
<g id="Ellipse 3" style="mix-blend-mode:normal;" figma:type="ellipse">
<use xlink:href="#path22_fill" transform="matrix(0.987415 0.158147 -0.159084 0.987265 -3419.97 2066.64)" fill="#FFFFFF" style="mix-blend-mode:normal;"/>
</g>
<g id="Ellipse 3" style="mix-blend-mode:normal;" figma:type="ellipse">
<use xlink:href="#path23_fill" transform="matrix(0.987408 0.158193 -0.159038 0.987272 -3406 2140.16)" fill="#FFFFFF" style="mix-blend-mode:normal;"/>
</g>
<g id="Ellipse 3" style="mix-blend-mode:normal;" figma:type="ellipse">
<use xlink:href="#path22_fill" transform="matrix(0.987415 0.158147 -0.159084 0.987265 -3419.93 2001.42)" fill="#FFFFFF" style="mix-blend-mode:normal;"/>
</g>
<g id="Ellipse 3" style="mix-blend-mode:normal;" figma:type="ellipse">
<use xlink:href="#path24_fill" transform="matrix(0.987415 0.158147 -0.159084 0.987265 -3449.34 2023.18)" fill="#FFFFFF" style="mix-blend-mode:normal;"/>
</g>
<g id="Ellipse 3" style="mix-blend-mode:normal;" figma:type="ellipse">
<use xlink:href="#path24_fill" transform="matrix(0.987415 0.158147 -0.159084 0.987265 -3443.21 2027.57)" fill="#FFFFFF" style="mix-blend-mode:normal;"/>
</g>
<g id="Ellipse 3" style="mix-blend-mode:normal;" figma:type="ellipse">
<use xlink:href="#path25_fill" transform="matrix(-0.858233 0.51326 -0.513479 -0.858102 -3519.79 2430.68)" fill="#FFFFFF" style="mix-blend-mode:normal;"/>
</g>
<g id="Ellipse 3" style="mix-blend-mode:normal;" figma:type="ellipse">
<use xlink:href="#path26_fill" transform="matrix(-0.858233 0.51326 -0.513479 -0.858102 -3538.86 2436.67)" fill="#FFFFFF" style="mix-blend-mode:normal;"/>
</g>
</g>
</g>
<defs>
<path id="path0_fill" d="M 3.37487 1.68498C 3.37487 2.61556 2.61938 3.36995 1.68743 3.36995C 0.755489 3.36995 0 2.61556 0 1.68498C 0 0.75439 0.755489 0 1.68743 0C 2.61938 0 3.37487 0.75439 3.37487 1.68498Z"/>
<path id="path1_fill" d="M 2.37491 1.18572C 2.37491 1.84058 1.84326 2.37145 1.18745 2.37145C 0.531641 2.37145 0 1.84058 0 1.18572C 0 0.530867 0.531641 0 1.18745 0C 1.84326 0 2.37491 0.530867 2.37491 1.18572Z"/>
<path id="path2_fill" d="M 3.3751 1.68486C 3.3751 2.61538 2.61956 3.36972 1.68755 3.36972C 0.755541 3.36972 0 2.61538 0 1.68486C 0 0.754338 0.755541 0 1.68755 0C 2.61956 0 3.3751 0.754338 3.3751 1.68486Z"/>
<path id="path3_fill" d="M 2.37507 1.18564C 2.37507 1.84045 1.84339 2.37128 1.18753 2.37128C 0.531677 2.37128 0 1.84045 0 1.18564C 0 0.53083 0.531677 0 1.18753 0C 1.84339 0 2.37507 0.53083 2.37507 1.18564Z"/>
<path id="path4_fill" d="M 3.37372 1.68555C 3.37372 2.61645 2.61849 3.3711 1.68686 3.3711C 0.755233 3.3711 0 2.61645 0 1.68555C 0 0.754646 0.755233 0 1.68686 0C 2.61849 0 3.37372 0.754646 3.37372 1.68555Z"/>
<path id="path5_fill" d="M 2.3741 1.18613C 2.3741 1.84121 1.84264 2.37225 1.18705 2.37225C 0.53146 2.37225 0 1.84121 0 1.18613C 0 0.531047 0.53146 0 1.18705 0C 1.84264 0 2.3741 0.531047 2.3741 1.18613Z"/>
<path id="path6_fill" d="M 3.37486 1.68498C 3.37486 2.61557 2.61937 3.36996 1.68743 3.36996C 0.755488 3.36996 0 2.61557 0 1.68498C 0 0.754391 0.755488 0 1.68743 0C 2.61937 0 3.37486 0.754391 3.37486 1.68498Z"/>
<path id="path7_fill" d="M 2.3749 1.18573C 2.3749 1.84058 1.84326 2.37145 1.18745 2.37145C 0.53164 2.37145 0 1.84058 0 1.18573C 0 0.530868 0.53164 0 1.18745 0C 1.84326 0 2.3749 0.530868 2.3749 1.18573Z"/>
<path id="path8_fill" d="M 3.37602 1.6844C 3.37602 2.61467 2.62028 3.3688 1.68801 3.3688C 0.755749 3.3688 0 2.61467 0 1.6844C 0 0.754131 0.755749 0 1.68801 0C 2.62028 0 3.37602 0.754131 3.37602 1.6844Z"/>
<path id="path9_fill" d="M 2.37572 1.18532C 2.37572 1.83995 1.8439 2.37064 1.18786 2.37064C 0.531823 2.37064 0 1.83995 0 1.18532C 0 0.530685 0.531823 0 1.18786 0C 1.8439 0 2.37572 0.530685 2.37572 1.18532Z"/>
<path id="path10_fill" d="M 3.3769 1.68396C 3.3769 2.61399 2.62095 3.36793 1.68845 3.36793C 0.755944 3.36793 0 2.61399 0 1.68396C 0 0.753936 0.755944 0 1.68845 0C 2.62095 0 3.3769 0.753936 3.3769 1.68396Z"/>
<path id="path11_fill" d="M 2.37634 1.18501C 2.37634 1.83947 1.84437 2.37002 1.18817 2.37002C 0.531961 2.37002 0 1.83947 0 1.18501C 0 0.530547 0.531961 0 1.18817 0C 1.84437 0 2.37634 0.530547 2.37634 1.18501Z"/>
<path id="path12_fill" d="M 4.23402 2.11373C 4.23402 3.28111 3.2862 4.22746 2.11701 4.22746C 0.947818 4.22746 0 3.28111 0 2.11373C 0 0.946349 0.947818 0 2.11701 0C 3.2862 0 4.23402 0.946349 4.23402 2.11373Z"/>
<path id="path13_fill" d="M 3.37546 1.68468C 3.37546 2.6151 2.61984 3.36936 1.68773 3.36936C 0.755623 3.36936 0 2.6151 0 1.68468C 0 0.754257 0.755623 0 1.68773 0C 2.61984 0 3.37546 0.754257 3.37546 1.68468Z"/>
<path id="path14_fill" d="M 2.37532 1.18551C 2.37532 1.84026 1.84359 2.37103 1.18766 2.37103C 0.531735 2.37103 0 1.84026 0 1.18551C 0 0.530773 0.531735 0 1.18766 0C 1.84359 0 2.37532 0.530773 2.37532 1.18551Z"/>
<path id="path15_fill" d="M 2.9795 1.48744C 2.9795 2.30893 2.31251 2.97488 1.48975 2.97488C 0.666983 2.97488 0 2.30893 0 1.48744C 0 0.665949 0.666983 0 1.48975 0C 2.31251 0 2.9795 0.665949 2.9795 1.48744Z"/>
<path id="path16_fill" d="M 2.97985 1.48726C 2.97985 2.30865 2.31279 2.97452 1.48993 2.97452C 0.667063 2.97452 0 2.30865 0 1.48726C 0 0.66587 0.667063 0 1.48993 0C 2.31279 0 2.97985 0.66587 2.97985 1.48726Z"/>
<path id="path17_fill" d="M 3.37354 1.68564C 3.37354 2.61659 2.61834 3.37128 1.68677 3.37128C 0.755192 3.37128 0 2.61659 0 1.68564C 0 0.754687 0.755192 0 1.68677 0C 2.61834 0 3.37354 0.754687 3.37354 1.68564Z"/>
<path id="path18_fill" d="M 2.37397 1.18619C 2.37397 1.84131 1.84254 2.37238 1.18699 2.37238C 0.531431 2.37238 0 1.84131 0 1.18619C 0 0.531076 0.531431 0 1.18699 0C 1.84254 0 2.37397 0.531076 2.37397 1.18619Z"/>
<path id="path19_fill" d="M 3.37508 1.68487C 3.37508 2.6154 2.61955 3.36974 1.68754 3.36974C 0.755538 3.36974 0 2.6154 0 1.68487C 0 0.754341 0.755538 0 1.68754 0C 2.61955 0 3.37508 0.754341 3.37508 1.68487Z"/>
<path id="path20_fill" d="M 4.23235 2.11456C 4.23235 3.2824 3.28491 4.22913 2.11618 4.22913C 0.947445 4.22913 0 3.2824 0 2.11456C 0 0.946722 0.947445 0 2.11618 0C 3.28491 0 4.23235 0.946722 4.23235 2.11456Z"/>
<path id="path21_fill" d="M 2.97832 1.48803C 2.97832 2.30984 2.3116 2.97605 1.48916 2.97605C 0.666721 2.97605 0 2.30984 0 1.48803C 0 0.666212 0.666721 0 1.48916 0C 2.3116 0 2.97832 0.666212 2.97832 1.48803Z"/>
<path id="path22_fill" d="M 3.37653 1.68415C 3.37653 2.61427 2.62067 3.36829 1.68827 3.36829C 0.755862 3.36829 0 2.61427 0 1.68415C 0 0.754018 0.755862 0 1.68827 0C 2.62067 0 3.37653 0.754018 3.37653 1.68415Z"/>
<path id="path23_fill" d="M 2.9808 1.48679C 2.9808 2.30792 2.31352 2.97358 1.4904 2.97358C 0.667274 2.97358 0 2.30792 0 1.48679C 0 0.665659 0.667274 0 1.4904 0C 2.31352 0 2.9808 0.665659 2.9808 1.48679Z"/>
<path id="path24_fill" d="M 2.37608 1.18514C 2.37608 1.83967 1.84417 2.37028 1.18804 2.37028C 0.531903 2.37028 0 1.83967 0 1.18514C 0 0.530605 0.531903 0 1.18804 0C 1.84417 0 2.37608 0.530605 2.37608 1.18514Z"/>
<path id="path25_fill" d="M 2.37541 1.18547C 2.37541 1.84019 1.84366 2.37094 1.18771 2.37094C 0.531754 2.37094 0 1.84019 0 1.18547C 0 0.530753 0.531754 0 1.18771 0C 1.84366 0 2.37541 0.530753 2.37541 1.18547Z"/>
<path id="path26_fill" d="M 3.37559 1.68462C 3.37559 2.615 2.61994 3.36923 1.68779 3.36923C 0.755651 3.36923 0 2.615 0 1.68462C 0 0.754229 0.755651 0 1.68779 0C 2.61994 0 3.37559 0.754229 3.37559 1.68462Z"/>
</defs>
</svg>
