<svg width="368" height="265" viewBox="0 0 368 265" version="1.1" xmlns="http://www.w3.org/2000/svg" xmlns:xlink="http://www.w3.org/1999/xlink" xmlns:figma="http://www.figma.com/figma/ns">
<title>stars2</title>
<desc>Created using Figma</desc>
<g id="Canvas" transform="translate(3579 -2482)" figma:type="canvas">
<g id="stars2" style="mix-blend-mode:normal;" figma:type="frame">
<g id="Ellipse 3" style="mix-blend-mode:normal;" figma:type="ellipse">
<use xlink:href="#path0_fill" transform="matrix(6.12501e-17 -1 1 6.12146e-17 -3530.41 2626.21)" fill="#FFFFFF" style="mix-blend-mode:normal;"/>
</g>
<g id="Ellipse 3" style="mix-blend-mode:normal;" figma:type="ellipse">
<use xlink:href="#path0_fill" transform="matrix(6.12501e-17 -1 1 6.12146e-17 -3498.27 2606.21)" fill="#FFFFFF" style="mix-blend-mode:normal;"/>
</g>
<g id="Ellipse 3" style="mix-blend-mode:normal;" figma:type="ellipse">
<use xlink:href="#path1_fill" transform="matrix(6.12501e-17 -1 1 6.12146e-17 -3500.64 2578.65)" fill="#FFFFFF" style="mix-blend-mode:normal;"/>
</g>
<g id="Ellipse 3" style="mix-blend-mode:normal;" figma:type="ellipse">
<use xlink:href="#path1_fill" transform="matrix(6.12501e-17 -1 1 6.12146e-17 -3563.73 2616.53)" fill="#FFFFFF" style="mix-blend-mode:normal;"/>
</g>
<g id="Ellipse 3" style="mix-blend-mode:normal;" figma:type="ellipse">
<use xlink:href="#path0_fill" transform="matrix(6.12501e-17 -1 1 6.12146e-17 -3463.79 2527.47)" fill="#FFFFFF" style="mix-blend-mode:normal;"/>
</g>
<g id="Ellipse 3" style="mix-blend-mode:normal;" figma:type="ellipse">
<use xlink:href="#path0_fill" transform="matrix(6.12501e-17 -1 1 6.12146e-17 -3495.99 2559.22)" fill="#FFFFFF" style="mix-blend-mode:normal;"/>
</g>
<g id="Ellipse 3" style="mix-blend-mode:normal;" figma:type="ellipse">
<use xlink:href="#path0_fill" transform="matrix(6.12501e-17 -1 1 6.12146e-17 -3508.72 2525.78)" fill="#FFFFFF" style="mix-blend-mode:normal;"/>
</g>
<g id="Ellipse 3" style="mix-blend-mode:normal;" figma:type="ellipse">
<use xlink:href="#path1_fill" transform="matrix(6.12501e-17 -1 1 6.12146e-17 -3437.64 2553.03)" fill="#FFFFFF" style="mix-blend-mode:normal;"/>
</g>
<g id="Ellipse 3" style="mix-blend-mode:normal;" figma:type="ellipse">
<use xlink:href="#path1_fill" transform="matrix(6.12501e-17 -1 1 6.12146e-17 -3468.84 2546.28)" fill="#FFFFFF" style="mix-blend-mode:normal;"/>
</g>
<g id="Ellipse 3" style="mix-blend-mode:normal;" figma:type="ellipse">
<use xlink:href="#path1_fill" transform="matrix(6.12501e-17 -1 1 6.12146e-17 -3434.27 2546.28)" fill="#FFFFFF" style="mix-blend-mode:normal;"/>
</g>
<g id="Ellipse 3" style="mix-blend-mode:normal;" figma:type="ellipse">
<use xlink:href="#path0_fill" transform="matrix(6.12501e-17 -1 1 6.12146e-17 -3546.17 2583.4)" fill="#FFFFFF" style="mix-blend-mode:normal;"/>
</g>
<g id="Ellipse 3" style="mix-blend-mode:normal;" figma:type="ellipse">
<use xlink:href="#path1_fill" transform="matrix(6.12501e-17 -1 1 6.12146e-17 -3556.96 2555.4)" fill="#FFFFFF" style="mix-blend-mode:normal;"/>
</g>
<g id="Ellipse 3" style="mix-blend-mode:normal;" figma:type="ellipse">
<use xlink:href="#path1_fill" transform="matrix(6.12501e-17 -1 1 6.12146e-17 -3553.59 2548.65)" fill="#FFFFFF" style="mix-blend-mode:normal;"/>
</g>
<g id="Ellipse 3" style="mix-blend-mode:normal;" figma:type="ellipse">
<use xlink:href="#path0_fill" transform="matrix(6.12501e-17 -1 1 6.12146e-17 -3506.1 2672.18)" fill="#FFFFFF" style="mix-blend-mode:normal;"/>
</g>
<g id="Ellipse 3" style="mix-blend-mode:normal;" figma:type="ellipse">
<use xlink:href="#path1_fill" transform="matrix(6.12501e-17 -1 1 6.12146e-17 -3476.33 2624.62)" fill="#FFFFFF" style="mix-blend-mode:normal;"/>
</g>
<g id="Ellipse 3" style="mix-blend-mode:normal;" figma:type="ellipse">
<use xlink:href="#path0_fill" transform="matrix(6.12501e-17 -1 1 6.12146e-17 -3578.31 2676.24)" fill="#FFFFFF" style="mix-blend-mode:normal;"/>
</g>
<g id="Ellipse 3" style="mix-blend-mode:normal;" figma:type="ellipse">
<use xlink:href="#path1_fill" transform="matrix(6.12501e-17 -1 1 6.12146e-17 -3539.43 2662.49)" fill="#FFFFFF" style="mix-blend-mode:normal;"/>
</g>
<g id="Ellipse 3" style="mix-blend-mode:normal;" figma:type="ellipse">
<use xlink:href="#path0_fill" transform="matrix(6.12501e-17 -1 1 6.12146e-17 -3484.42 2571.74)" fill="#FFFFFF" style="mix-blend-mode:normal;"/>
</g>
<g id="Ellipse 3" style="mix-blend-mode:normal;" figma:type="ellipse">
<use xlink:href="#path0_fill" transform="matrix(6.12501e-17 -1 1 6.12146e-17 -3558.8 2575.81)" fill="#FFFFFF" style="mix-blend-mode:normal;"/>
</g>
<g id="Ellipse 3" style="mix-blend-mode:normal;" figma:type="ellipse">
<use xlink:href="#path2_fill" transform="matrix(-0.780403 -0.625277 0.625497 -0.780226 -3517.49 2730.9)" fill="#FFFFFF" style="mix-blend-mode:normal;"/>
</g>
<g id="Ellipse 3" style="mix-blend-mode:normal;" figma:type="ellipse">
<use xlink:href="#path3_fill" transform="matrix(-0.780403 -0.625277 0.625497 -0.780226 -3505.97 2746.61)" fill="#FFFFFF" style="mix-blend-mode:normal;"/>
</g>
<g id="Ellipse 3" style="mix-blend-mode:normal;" figma:type="ellipse">
<use xlink:href="#path3_fill" transform="matrix(-0.780403 -0.625277 0.625497 -0.780226 -3503.82 2710.63)" fill="#FFFFFF" style="mix-blend-mode:normal;"/>
</g>
<g id="Ellipse 3" style="mix-blend-mode:normal;" figma:type="ellipse">
<use xlink:href="#path2_fill" transform="matrix(-0.780403 -0.625277 0.625497 -0.780226 -3516.08 2694.85)" fill="#FFFFFF" style="mix-blend-mode:normal;"/>
</g>
<g id="Ellipse 3" style="mix-blend-mode:normal;" figma:type="ellipse">
<use xlink:href="#path0_fill" transform="matrix(6.12501e-17 -1 1 6.12146e-17 -3521.86 2629.37)" fill="#FFFFFF" style="mix-blend-mode:normal;"/>
</g>
<g id="Ellipse 3" style="mix-blend-mode:normal;" figma:type="ellipse">
<use xlink:href="#path1_fill" transform="matrix(6.12501e-17 -1 1 6.12146e-17 -3532.66 2601.37)" fill="#FFFFFF" style="mix-blend-mode:normal;"/>
</g>
<g id="Ellipse 3" style="mix-blend-mode:normal;" figma:type="ellipse">
<use xlink:href="#path1_fill" transform="matrix(6.12501e-17 -1 1 6.12146e-17 -3563.86 2594.62)" fill="#FFFFFF" style="mix-blend-mode:normal;"/>
</g>
<g id="Ellipse 3" style="mix-blend-mode:normal;" figma:type="ellipse">
<use xlink:href="#path1_fill" transform="matrix(6.12501e-17 -1 1 6.12146e-17 -3529.29 2594.62)" fill="#FFFFFF" style="mix-blend-mode:normal;"/>
</g>
<g id="Ellipse 3" style="mix-blend-mode:normal;" figma:type="ellipse">
<use xlink:href="#path0_fill" transform="matrix(-0.953578 0.301145 -0.301145 -0.953578 -3318.41 2542.81)" fill="#FFFFFF" style="mix-blend-mode:normal;"/>
</g>
<g id="Ellipse 3" style="mix-blend-mode:normal;" figma:type="ellipse">
<use xlink:href="#path0_fill" transform="matrix(-0.953578 0.301145 -0.301145 -0.953578 -3347.15 2518.18)" fill="#FFFFFF" style="mix-blend-mode:normal;"/>
</g>
<g id="Ellipse 3" style="mix-blend-mode:normal;" figma:type="ellipse">
<use xlink:href="#path1_fill" transform="matrix(-0.953578 0.301145 -0.301145 -0.953578 -3372.72 2528.74)" fill="#FFFFFF" style="mix-blend-mode:normal;"/>
</g>
<g id="Ellipse 3" style="mix-blend-mode:normal;" figma:type="ellipse">
<use xlink:href="#path1_fill" transform="matrix(-0.953578 0.301145 -0.301145 -0.953578 -3317.61 2577.5)" fill="#FFFFFF" style="mix-blend-mode:normal;"/>
</g>
<g id="Ellipse 3" style="mix-blend-mode:normal;" figma:type="ellipse">
<use xlink:href="#path0_fill" transform="matrix(-0.953578 0.301145 -0.301145 -0.953578 -3392.66 2530.16)" fill="#FFFFFF" style="mix-blend-mode:normal;"/>
</g>
<g id="Ellipse 3" style="mix-blend-mode:normal;" figma:type="ellipse">
<use xlink:href="#path0_fill" transform="matrix(-0.953578 0.301145 -0.301145 -0.953578 -3354.48 2570.73)" fill="#FFFFFF" style="mix-blend-mode:normal;"/>
</g>
<g id="Ellipse 3" style="mix-blend-mode:normal;" figma:type="ellipse">
<use xlink:href="#path1_fill" transform="matrix(-0.953578 0.301145 -0.301145 -0.953578 -3377.93 2589.45)" fill="#FFFFFF" style="mix-blend-mode:normal;"/>
</g>
<g id="Ellipse 3" style="mix-blend-mode:normal;" figma:type="ellipse">
<use xlink:href="#path1_fill" transform="matrix(-0.953578 0.301145 -0.301145 -0.953578 -3385.38 2588.27)" fill="#FFFFFF" style="mix-blend-mode:normal;"/>
</g>
<g id="Ellipse 3" style="mix-blend-mode:normal;" figma:type="ellipse">
<use xlink:href="#path0_fill" transform="matrix(-0.953578 0.301145 -0.301145 -0.953578 -3281.89 2505.79)" fill="#FFFFFF" style="mix-blend-mode:normal;"/>
</g>
<g id="Ellipse 3" style="mix-blend-mode:normal;" figma:type="ellipse">
<use xlink:href="#path0_fill" transform="matrix(-0.953578 0.301145 -0.301145 -0.953578 -3256.28 2573.42)" fill="#FFFFFF" style="mix-blend-mode:normal;"/>
</g>
<g id="Ellipse 3" style="mix-blend-mode:normal;" figma:type="ellipse">
<use xlink:href="#path1_fill" transform="matrix(-0.953578 0.301145 -0.301145 -0.953578 -3281.1 2540.48)" fill="#FFFFFF" style="mix-blend-mode:normal;"/>
</g>
<g id="Ellipse 3" style="mix-blend-mode:normal;" figma:type="ellipse">
<use xlink:href="#path0_fill" transform="matrix(-0.953578 0.301145 -0.301145 -0.953578 -3357.92 2585.07)" fill="#FFFFFF" style="mix-blend-mode:normal;"/>
</g>
<g id="Ellipse 3" style="mix-blend-mode:normal;" figma:type="ellipse">
<use xlink:href="#path2_fill" transform="matrix(-0.361235 0.932475 -0.932372 -0.361499 -3222.47 2498.96)" fill="#FFFFFF" style="mix-blend-mode:normal;"/>
</g>
<g id="Ellipse 3" style="mix-blend-mode:normal;" figma:type="ellipse">
<use xlink:href="#path3_fill" transform="matrix(-0.361235 0.932475 -0.932372 -0.361499 -3210.96 2483.25)" fill="#FFFFFF" style="mix-blend-mode:normal;"/>
</g>
<g id="Ellipse 3" style="mix-blend-mode:normal;" figma:type="ellipse">
<use xlink:href="#path3_fill" transform="matrix(-0.361235 0.932475 -0.932372 -0.361499 -3245.91 2492.03)" fill="#FFFFFF" style="mix-blend-mode:normal;"/>
</g>
<g id="Ellipse 3" style="mix-blend-mode:normal;" figma:type="ellipse">
<use xlink:href="#path2_fill" transform="matrix(-0.361235 0.932475 -0.932372 -0.361499 -3257.27 2508.48)" fill="#FFFFFF" style="mix-blend-mode:normal;"/>
</g>
<g id="Ellipse 3" style="mix-blend-mode:normal;" figma:type="ellipse">
<use xlink:href="#path0_fill" transform="matrix(-0.953578 0.301145 -0.301145 -0.953578 -3317.97 2533.71)" fill="#FFFFFF" style="mix-blend-mode:normal;"/>
</g>
<g id="Ellipse 3" style="mix-blend-mode:normal;" figma:type="ellipse">
<use xlink:href="#path1_fill" transform="matrix(-0.953578 0.301145 -0.301145 -0.953578 -3341.42 2552.43)" fill="#FFFFFF" style="mix-blend-mode:normal;"/>
</g>
<g id="Ellipse 3" style="mix-blend-mode:normal;" figma:type="ellipse">
<use xlink:href="#path1_fill" transform="matrix(-0.953578 0.301145 -0.301145 -0.953578 -3338.46 2584.22)" fill="#FFFFFF" style="mix-blend-mode:normal;"/>
</g>
<g id="Ellipse 3" style="mix-blend-mode:normal;" figma:type="ellipse">
<use xlink:href="#path1_fill" transform="matrix(-0.953578 0.301145 -0.301145 -0.953578 -3348.87 2551.25)" fill="#FFFFFF" style="mix-blend-mode:normal;"/>
</g>
</g>
</g>
<defs>
<path id="path0_fill" d="M 3.37487 1.68498C 3.37487 2.61556 2.61938 3.36995 1.68743 3.36995C 0.755489 3.36995 0 2.61556 0 1.68498C 0 0.75439 0.755489 0 1.68743 0C 2.61938 0 3.37487 0.75439 3.37487 1.68498Z"/>
<path id="path1_fill" d="M 2.37491 1.18572C 2.37491 1.84058 1.84326 2.37145 1.18745 2.37145C 0.531641 2.37145 0 1.84058 0 1.18572C 0 0.530867 0.531641 0 1.18745 0C 1.84326 0 2.37491 0.530867 2.37491 1.18572Z"/>
<path id="path2_fill" d="M 3.37546 1.68468C 3.37546 2.6151 2.61984 3.36936 1.68773 3.36936C 0.755623 3.36936 0 2.6151 0 1.68468C 0 0.754257 0.755623 0 1.68773 0C 2.61984 0 3.37546 0.754257 3.37546 1.68468Z"/>
<path id="path3_fill" d="M 2.37532 1.18551C 2.37532 1.84026 1.84359 2.37103 1.18766 2.37103C 0.531735 2.37103 0 1.84026 0 1.18551C 0 0.530773 0.531735 0 1.18766 0C 1.84359 0 2.37532 0.530773 2.37532 1.18551Z"/>
</defs>
</svg>
